<?xml version="1.0" standalone="no"?>
<!DOCTYPE svg PUBLIC "-//W3C//DTD SVG 20010904//EN"
 "http://www.w3.org/TR/2001/REC-SVG-20010904/DTD/svg10.dtd">
<svg version="1.0" xmlns="http://www.w3.org/2000/svg"
 width="195.000000pt" height="195.000000pt" viewBox="0 0 195.000000 195.000000"
 preserveAspectRatio="xMidYMid meet">
<metadata>
Created by potrace 1.15, written by Peter Selinger 2001-2017
</metadata>
<g transform="translate(0.000000,195.000000) scale(0.100000,-0.100000)"
fill="#000000" stroke="none">
<path d="M835 1856 c-125 -31 -230 -100 -376 -245 -136 -136 -263 -297 -305
-386 -41 -86 -74 -211 -74 -279 0 -158 83 -308 276 -498 216 -213 362 -308
539 -349 86 -19 104 -21 168 -10 76 12 187 59 262 111 116 80 360 346 443 482
38 65 67 142 88 241 25 121 -6 252 -91 382 -56 86 -251 282 -378 380 -125 97
-200 137 -318 165 -94 22 -160 24 -234 6z m538 -547 c43 -14 42 -13 21 -86
-14 -49 -18 -54 -37 -49 -12 4 -48 11 -79 17 -49 10 -62 8 -95 -7 -76 -38 -49
-93 67 -138 141 -56 196 -122 188 -227 -6 -80 -40 -129 -115 -166 -52 -25 -68
-28 -158 -28 -74 0 -113 5 -148 19 -45 17 -48 20 -42 45 15 63 26 101 29 101
2 0 21 -6 42 -14 109 -38 203 -28 224 25 20 46 -9 76 -111 119 -106 44 -162
96 -177 164 -31 148 89 253 278 241 41 -2 92 -9 113 -16z m-503 -237 c0 -264
-6 -310 -50 -372 -12 -17 -40 -40 -63 -52 -48 -24 -154 -35 -207 -21 -37 10
-39 18 -25 109 5 31 6 31 47 24 54 -10 108 7 125 40 9 18 13 93 13 273 l0 247
80 0 80 0 0 -248z"/>
</g>
</svg>
